<?xml version="1.0" encoding="utf-8"?>
<!-- Svg Vector Icons : http://www.onlinewebfonts.com/icon -->
<!DOCTYPE svg PUBLIC "-//W3C//DTD SVG 1.1//EN" "http://www.w3.org/Graphics/SVG/1.1/DTD/svg11.dtd">
<svg version="1.1" xmlns="http://www.w3.org/2000/svg" xmlns:xlink="http://www.w3.org/1999/xlink" x="0px" y="0px" viewBox="0 0 256 256" enable-background="new 0 0 256 256" xml:space="preserve">
<metadata> Svg Vector Icons : http://www.onlinewebfonts.com/icon </metadata>
<g><g><g><path fill="#000000" d="M121.2,11.4c-10.9,7.8-19.3,9.7-46.9,10.2L56,22.1l-1.7,2c-3.1,3.5-1.8,8.1,2.8,9.6c3,0.9,30.6,0.3,39.8-0.9c8.5-1.1,16.9-3.3,21.9-5.7l3.8-1.8l1.2,1.7c10,13.7,20.4,21.4,36.8,27c12.4,4.3,23.7,6,40.4,5.9l12.1-0.1l-1.4,6.6c-1.2,5.4-1.5,8.5-1.5,17c-0.1,11.2,0.5,15.2,3.3,23.8c3.1,9.6,8.1,18.3,15.3,26.7l3.4,4.1l-2.5,5.1c-5.3,10.6-7.4,20.5-7.4,34.2c0,9.9,1.2,18.6,3.8,27.7c1.9,6.4,3,8.5,5.4,9.9c2.6,1.5,5.9,0.4,7.6-2.6c1.2-2.4,1.4-1.6-1.7-11.8c-5.9-19.9-3.6-42.3,5.9-57.1c1.3-2,2.3-4.4,2.5-5.9c0.2-2.3,0.1-2.6-4-7.1c-12.4-13.5-18.1-25.2-19.5-40.1c-0.9-9.6,0.7-22.3,4.1-32.3c3.1-8.9,0.1-12.7-9.1-11.3c-8.6,1.2-24.4,1.4-32.9,0.4c-26.1-3.4-44-13.8-52.5-30.6c-1.1-2.2-2.7-4.5-3.5-5.2C126.4,9.5,123.6,9.6,121.2,11.4z"/><path fill="#000000" d="M94.2,52.5c-4.3,1.1-8.9,4.1-23.4,15.5L55.4,79.9l-8.6-0.4c-10.4-0.5-22.2,0.4-27.7,2.1c-2.7,0.8-4.7,2-6.5,3.6L10,87.6v11.9v11.9l3.2-5.8c4.9-8.8,7.5-12,10.5-12.8c4.5-1.2,24.5-1.5,34.7-0.4c5,0.5,10.1,1.3,11.2,1.7c2.3,0.8,31.8,22.7,41.6,30.8c3.1,2.7,5.7,5.1,5.7,5.6c0.1,1.3-4.9,5.8-8.4,7.5c-3,1.4-3.9,1.6-7.5,1.4c-4.9-0.4-8.9-2.4-13.8-7c-1.7-1.7-3.7-3.4-4.4-3.8c-1.4-0.9-25.4-6.7-28-6.7c-3.6,0-4.6,1-11.7,12.6c-7.7,12.7-8.5,14.9-6.1,17.8c0.9,0.9,2.2,1.7,3.6,2c3.6,0.5,5.3-1,11.1-10.5c4.4-7.2,5.4-8.5,6.7-8.7c1.2-0.2,1.6,0.1,1.6,1c0,0.6,0.5,2.3,1.1,3.7c2,4.6,4.2,13.4,5.2,20.2C69,177,65.3,193,55.9,205.9c-4.8,6.6-4.9,10.2-0.4,12.5c3.8,1.9,7.2-0.5,12.7-8.8c7.6-11.5,11.1-24.2,11.1-39.6c0-10.6-2-22.7-5.1-30.7c-0.8-2,1.5-0.9,5.8,2.8c5.3,4.4,8.3,6.3,13.5,8.1c2.1,0.8,3.9,1.4,4,1.5c0.1,0-0.5,2-1.4,4.4c-1.4,3.8-1.5,5.1-1.3,9.8c0.2,4.4,0.5,6,2.1,9.3c3.1,6.6,9.2,12,16.3,14.2c0.9,0.4,0.9,0.6-0.1,3.6c-3.4,9.6-1.4,19.1,5.7,26.4c7.8,8.1,19.4,10.4,29.3,5.7c1.8-0.8,7.6-4.9,13-9.1c11.8-9.2,12-9.2,9.8-6.3c-9.7,13.1-21.7,24.9-34.3,33.8l-3.5,2.5h10.2h10.1l2.8-2.5c8.9-7.9,16.9-16.5,23.1-24.9c6.4-8.7,13.1-21.4,13.1-25c0-1.6,0.5-2.7,1.8-4.3c4.3-4.9,7-14.4,5.9-20.4c-1.3-6.8-3.8-11.5-8.7-15.7c-2.8-2.4-8.2-5.4-9.9-5.4c-1.2,0-1.2,0.1,0.3-3.2c1.5-3.5,2.1-9.8,1.2-14.1c-2.1-9.8-10.2-18.2-19.6-20.2l-1.5-0.4l0.9-4c0.7-3.3,0.8-4.8,0.3-8.3c-2.3-15.9-17.5-26.3-32.7-22.4c-3.5,0.9-4.1,0.6-4.1-1.8c0-2.1-1.9-6.9-3.8-10.1c-2.4-3.8-6.1-6.9-10.8-9.2c-3.3-1.6-4.4-1.8-9.5-2C98.7,52.1,95.3,52.2,94.2,52.5z M106.8,65.5c6.6,3.3,9.2,11.4,5.8,18.2c-1.2,2.4-2.8,4-7.8,7.9c-3.5,2.7-6.8,5.3-7.4,5.8c-1,0.7-2,0.1-10.1-6c-9.1-6.9-12-8.7-13.7-8.7c-0.5,0-0.9-0.2-0.8-0.5C73,81.6,88,69.7,92.2,66.8C96.7,63.6,102.2,63.1,106.8,65.5z M140.7,87.2c8.4,2.5,12.5,12.2,8.6,20.2c-1.2,2.5-2.6,3.9-7.2,7.4c-3.1,2.4-7.5,5.7-9.6,7.5l-3.9,3.1l-1.4-2c-1.4-2-11.3-10.6-17-14.8c-1.7-1.2-3.1-2.5-3-2.8c0.2-0.5,18.6-15,21.4-16.8c1.8-1.1,6-2.5,7.9-2.6C137,86.3,139,86.7,140.7,87.2z M161.6,122.4c2.8,0.8,6.6,4.1,8.2,7.3c1.7,3.3,1.6,8.5-0.2,12.1c-1.2,2.3-4.4,5-22.1,18.8c-11.4,8.9-21.4,16.4-22.4,16.7c-2.9,1-8.4,0.7-10.9-0.6c-5.6-2.8-8.8-9.6-7.2-15.3c1.2-4.6,2.6-6.2,12.3-13.6c5.1-4,14.4-11.1,20.6-15.9c6.2-4.8,12.2-9.1,13.3-9.5C155.7,121.6,158.7,121.6,161.6,122.4z M180.2,160.3c8.2,4,10.4,14.6,4.4,21.3c-2.8,3.1-38.7,31-41.8,32.5c-8.7,4.3-19.2-2.5-19.2-12.4c0-4,1.5-7.3,4.5-10.1c4.1-3.8,37.7-29.8,40.4-31.1C171.9,158.6,176.7,158.6,180.2,160.3z"/></g></g></g>
</svg>