<?xml version="1.0" encoding="utf-8"?>
<!-- Svg Vector Icons : http://www.onlinewebfonts.com/icon -->
<!DOCTYPE svg PUBLIC "-//W3C//DTD SVG 1.1//EN" "http://www.w3.org/Graphics/SVG/1.1/DTD/svg11.dtd">
<svg version="1.1" xmlns="http://www.w3.org/2000/svg" xmlns:xlink="http://www.w3.org/1999/xlink" x="0px" y="0px" viewBox="0 0 256 256" enable-background="new 0 0 256 256" xml:space="preserve">
<metadata> Svg Vector Icons : http://www.onlinewebfonts.com/icon </metadata>
<g><g><path fill="#000000" d="M128,246c-31.5,0-61.1-12.3-83.4-34.6C22.3,189.1,10,159.5,10,128c0-31.5,12.3-61.1,34.6-83.4C66.9,22.3,96.5,10,128,10c31.5,0,61.1,12.3,83.4,34.6C233.7,66.9,246,96.5,246,128c0,31.5-12.3,61.1-34.6,83.4C189.1,233.7,159.5,246,128,246z M128,22.1C69.6,22.1,22.1,69.6,22.1,128c0,58.4,47.5,105.9,105.9,105.9c58.4,0,105.9-47.5,105.9-105.9C233.9,69.6,186.4,22.1,128,22.1z"/><path fill="#000000" d="M128.2,218c-17.6,0-33.9-5.8-45.7-16.2c-12.4-10.9-19.2-26.3-19.2-43.5c0-6.2,3.6-14.8,20.6-20.4c11.1-3.6,26.4-5.5,44.3-5.5c17.9,0,33.3,1.9,44.3,5.5c17.1,5.5,20.6,14.1,20.6,20.4c0,17.1-6.8,32.6-19.2,43.5C162.1,212.3,145.8,218,128.2,218z M128.2,140.5c-34,0-56.9,7.2-56.9,17.8c0,29.9,23.9,51.6,56.9,51.6s56.9-21.7,56.9-51.6C185.1,147.7,162.2,140.5,128.2,140.5z"/><path fill="#000000" d="M102,87.3c-2.2,0-4-1.8-4-4c0-7.8-6.7-11.3-13.3-11.3c-6.6,0-13.3,3.5-13.3,11.3c0,2.2-1.8,4-4,4c-2.2,0-4-1.8-4-4c0-11.2,9-19.4,21.4-19.4C97,63.8,106,72,106,83.2C106,85.4,104.2,87.3,102,87.3z"/><path fill="#000000" d="M188.9,87.3c-2.2,0-4-1.8-4-4c0-7.8-6.7-11.3-13.3-11.3c-6.6,0-13.3,3.5-13.3,11.3c0,2.2-1.8,4-4,4s-4-1.8-4-4c0-11.2,9-19.4,21.4-19.4c12.4,0,21.4,8.1,21.4,19.4C192.9,85.4,191.1,87.3,188.9,87.3z"/></g></g>
</svg>