<?xml version="1.0" encoding="utf-8"?>
<!-- Svg Vector Icons : http://www.onlinewebfonts.com/icon -->
<!DOCTYPE svg PUBLIC "-//W3C//DTD SVG 1.1//EN" "http://www.w3.org/Graphics/SVG/1.1/DTD/svg11.dtd">
<svg version="1.1" xmlns="http://www.w3.org/2000/svg" xmlns:xlink="http://www.w3.org/1999/xlink" x="0px" y="0px" viewBox="0 0 256 256" enable-background="new 0 0 256 256" xml:space="preserve">
<metadata> Svg Vector Icons : http://www.onlinewebfonts.com/icon </metadata>
<g><g><g><path fill="#000000" d="M114.8,10.7c-31.3,4.2-58.9,24-73.3,52.5c-7.1,14.1-10.3,27.6-10.3,44c0,22.9,6.8,48.7,19.4,74.1c8.3,16.7,17.6,30,28.8,41.2c11.6,11.6,22.6,18.5,35.3,22c5.6,1.5,15.3,2.1,21,1.2c22.3-3.6,43.6-20.7,61.5-49.1c4.8-7.7,13-24.2,16.4-33.2c4.7-12.4,8.1-25.3,10.2-37.8c1.3-7.6,1.5-24.7,0.5-31.6c-3.1-21.6-12.4-40.1-27.7-55.5C177.7,19.5,154.1,9.9,127.4,10C123.2,10,117.5,10.3,114.8,10.7z M137.1,20.6c10.4,1.1,19.2,3.7,28.8,8.3C193,42.1,210.6,67,214.4,97.6c0.7,5.6,0.3,19-0.8,25.6c-4.5,28.5-16.4,57.2-33.3,79.8c-5,6.7-16.2,18-21.6,21.8c-24.9,17.6-49.7,13.8-73.7-11.2c-24.9-26-43.7-71.9-43.7-106.9c0-33.3,18.8-63.3,48.9-77.9C105.2,21.7,121.2,18.8,137.1,20.6z"/><path fill="#000000" d="M84.1,70.7c-10.7,2.5-18.4,13.8-16.7,24.4c1.3,7.9,5.3,13.3,12.4,16.8c3.6,1.8,3.8,1.8,9.2,1.8c5.4,0,5.7,0,9.3-1.8c10.4-5,15.1-16.3,11.4-27.1c-1.6-4.7-6.2-10-10.5-12.2C94.9,70.4,88.7,69.6,84.1,70.7z M92.4,81.1c3,0.9,6.1,3.5,7.3,6.2c2.1,4.5,0.5,11.1-3.2,14c-5.1,3.9-10.9,3.5-15.5-1c-3.9-3.8-4.6-8.5-2.2-13.3c1.6-3.1,4-5.2,7.2-6.1C89,80.1,89.4,80.1,92.4,81.1z"/><path fill="#000000" d="M162.5,70.8c-14.3,3.8-21.1,20-13.6,32.7c1.5,2.6,5.8,6.7,8.3,8c9.1,4.6,20.2,2.7,26.7-4.7c10.3-11.7,5.9-29.7-8.7-35.3C172,70.3,165.8,69.9,162.5,70.8z M172.9,81.7c2,1.1,4.4,3.5,5.4,5.5c2.6,5.3,0.5,11.9-4.8,15c-3,1.8-8,1.9-11,0.3c-4.2-2.2-6.2-5.6-6.3-10.5c0-2.8,0.2-3.8,1.4-5.6C160.8,81,167.5,78.9,172.9,81.7z"/><path fill="#000000" d="M122.1,126.3c-1.5,0.4-3.4,1-4.1,1.4c-3.8,2-6.3,5.5-6.3,8.8c0,2.3,2.6,5,4.8,5c2.2,0,4.2-1.2,5-2.9c0.8-1.8,2.7-2.5,6.6-2.5c4,0,5.9,0.7,6.6,2.5c0.8,1.7,2.8,2.9,5,2.9c2.3,0,4.8-2.7,4.8-5.2c0-3.9-3.9-8-8.8-9.5C132,125.7,125.5,125.4,122.1,126.3z"/><path fill="#000000" d="M114.3,159.6c-2.7,1.3-3.8,4.6-2.4,7.4c1,2,2.6,2.9,5,2.9c1.8,0,2.4-0.3,3.8-1.6C125.1,163.8,120,156.8,114.3,159.6z"/><path fill="#000000" d="M136.4,159.7c-1.9,1.2-2.6,2.4-2.6,4.9c0,1.6,0.3,2.3,1.6,3.7c1.4,1.4,2,1.6,3.8,1.6c2.5,0,4.2-1.2,5.2-3.3C146.4,161.8,140.7,157,136.4,159.7z"/><path fill="#000000" d="M114,182.2c-3.7,2-3.6,7.7,0.2,9.6c3.8,1.9,8.1-0.7,8.1-4.9c0-1.9-0.2-2.5-1.6-3.9c-1.3-1.3-2-1.6-3.5-1.6C116.1,181.5,114.7,181.8,114,182.2z"/><path fill="#000000" d="M135.5,183.1c-1.4,1.4-1.6,2-1.6,3.9c0,5.7,7.8,7.7,10.4,2.7c2-4-0.7-8.2-5.3-8.2C137.5,181.5,136.7,181.9,135.5,183.1z"/><path fill="#000000" d="M114.8,204.3c-2.4,1.1-3.4,2.5-3.4,5.1c0,1.9,0.2,2.6,1.4,3.8c4.5,4.7,11.6-0.5,8.9-6.4C120.6,204.4,117.3,203.2,114.8,204.3z"/><path fill="#000000" d="M138.2,203.9c-2.9,1-4.3,2.8-4.3,5.5c0,3.5,3.1,6.2,6.5,5.6c3.3-0.6,5.5-5.1,4-7.9C143.2,204.9,140,203.3,138.2,203.9z"/></g></g></g>
</svg>