<?xml version="1.0" encoding="utf-8"?>
<!-- Svg Vector Icons : http://www.onlinewebfonts.com/icon -->
<!DOCTYPE svg PUBLIC "-//W3C//DTD SVG 1.1//EN" "http://www.w3.org/Graphics/SVG/1.1/DTD/svg11.dtd">
<svg version="1.1" xmlns="http://www.w3.org/2000/svg" xmlns:xlink="http://www.w3.org/1999/xlink" x="0px" y="0px" viewBox="0 0 256 256" enable-background="new 0 0 256 256" xml:space="preserve">
<metadata> Svg Vector Icons : http://www.onlinewebfonts.com/icon </metadata>
<g><g><g><path fill="#000000" d="M119.7,10.1c-0.9,0.1-3.6,0.4-6,0.7C93,13.1,71.1,22.4,54.1,36.1c-23.8,19.2-39.3,46.8-43.5,77.6c-0.8,5.7-0.8,22.9,0,28.6c3,22,11.8,42.6,25.4,59.5c7.6,9.4,17.6,18.5,27.8,25.2c7.1,4.7,19.3,10.5,27.6,13.3c12.7,4.2,22.7,5.7,36.6,5.7c18.9,0,34.6-3.6,51.5-11.9c24.1-11.9,42.7-30.5,54.6-54.6c5.9-11.9,9.4-23.5,11.4-37.4c0.7-5.4,0.7-22.7,0-28.2c-3.2-22.5-11.8-42.8-25.5-59.8c-18.9-23.4-46-38.9-76-43.3C139.5,10.2,123,9.6,119.7,10.1z M144.2,18.3c42.6,6.6,76.3,35,89.4,75.4c3.8,11.8,5.1,20.7,5.1,34.3c0,13.7-1.3,22.6-5.1,34.3c-11,34-37.2,60.2-71.2,71.2c-11.7,3.8-20.7,5.1-34.3,5.1s-22.5-1.3-34.3-5.1c-34.1-11-60.2-37.1-71.2-71.2c-3.7-11.6-5.1-20.7-5.1-34.1c0-10.7,0.5-15.2,2.3-24.1C25.6,76,42.8,51,67,35.2c14-9.1,30.8-15.3,46.7-17.1c2.4-0.3,5-0.6,5.8-0.7C122.5,17,139.6,17.6,144.2,18.3z"/><path fill="#000000" d="M82.9,53c-12.5,1.4-26.8,6.8-28.5,10.9c-1,2.3,1,5,3.6,5c0.4,0,1.8-0.7,3.1-1.6c9.1-6.1,24.8-8.7,37.5-6.4c4,0.7,4.4,0.7,5.5,0c1.5-0.9,1.9-2.6,1.2-4.4c-1-2.4-4.5-3.2-13.9-3.5C87.8,52.9,84,52.9,82.9,53z"/><path fill="#000000" d="M158.7,53.2c-6.3,0.9-8.5,2.1-8.5,4.7c0,1.5,1.8,3.6,3.1,3.6c0.5,0,2.4-0.3,4.4-0.7c11.9-2.3,28.2,0.6,37.1,6.5c1.3,0.9,2.7,1.6,3.1,1.6c2.6,0,4.6-2.7,3.6-5c-1.4-3.3-12-8-22.7-10C174.2,53,162.7,52.6,158.7,53.2z"/><path fill="#000000" d="M59.3,80.5c-4.9,4.8-5.7,6.3-4.8,8.2c0.4,0.7,4,4.3,8,8.1s7.4,7,7.5,7.2c0,0.2-3.4,3.5-7.7,7.4c-8.4,7.6-9,8.5-7.8,10.9c0.4,0.7,2.6,3.1,4.9,5.3c3.4,3.4,4.4,4.1,5.6,4.1c1.2,0,2.7-1.2,9.7-7.6c4.6-4.2,8.5-7.6,8.8-7.6c0.2,0,4.2,3.4,8.7,7.6c7.1,6.5,8.5,7.6,9.7,7.6c1.2,0,2.2-0.7,6.1-4.5c4.6-4.5,5.3-5.7,4.8-7.7c-0.1-0.6-3.7-4.2-8.1-8.2c-4.3-3.9-7.9-7.2-7.9-7.3c0-0.2,3.6-3.5,7.9-7.4c4.3-3.9,8-7.6,8.1-8.2c0.5-1.9-0.2-3.1-4.8-7.6c-3.8-3.7-4.8-4.5-6.1-4.5c-1.2,0-2.6,1.1-9,6.9c-4.1,3.7-7.8,7.2-8.1,7.6c-0.3,0.4-0.9,0.7-1.3,0.7c-0.3,0-3.4-2.5-6.7-5.6c-10.9-10-10.4-9.6-11.9-9.6C63.9,76.3,62.9,77,59.3,80.5z M75.3,94.3c6.3,5.8,7.8,6.7,9.4,6.2c0.5-0.1,4.6-3.7,9.1-7.8l8.2-7.6l1.2,1.2l1.2,1.2l-1.5,1.2C97,93.6,88.2,102.1,88,103c-0.2,0.6-0.2,1.6,0,2.1c0.2,0.9,7.7,8.1,14.8,14.3l1.4,1.2l-1.2,1.2l-1.2,1.2l-7.6-7.2c-8.3-7.8-9.6-8.7-11.3-8.2c-0.6,0.1-4.8,3.7-9.3,7.8l-8.2,7.6l-1.2-1.2c-1-1-1.1-1.2-0.5-1.7c0.4-0.4,4-3.6,8-7.3c7.2-6.5,8.1-7.7,7.5-9.8c-0.2-0.8-11.6-11.9-15.2-14.7l-1-0.8l1.2-1.2l1.1-1.2l1.8,1.8C68.3,87.8,71.9,91.2,75.3,94.3z"/><path fill="#000000" d="M147.8,80.8c-4.6,4.5-5.3,5.7-4.9,7.6c0.2,0.6,3.8,4.3,8.1,8.2c4.3,3.9,7.9,7.3,7.9,7.4c0,0.1-3.6,3.5-7.9,7.3c-4.4,4-8,7.6-8.1,8.2c-0.5,2,0.2,3.1,4.8,7.7c3.8,3.7,4.8,4.5,6.1,4.5c1.2,0,2.7-1.1,9.8-7.7c8-7.4,8.4-7.7,9.4-7c0.6,0.4,4.5,3.8,8.7,7.7c9.6,8.8,8.9,8.7,14.9,2.9c4.8-4.7,5.7-6.2,4.9-8.2c-0.3-0.7-4-4.3-8.1-8.1c-4.2-3.8-7.6-7.1-7.5-7.3c0.1-0.2,3.5-3.4,7.5-7.2c4.1-3.7,7.7-7.4,8-8.1c1-1.9,0.1-3.4-4.8-8.2c-3.6-3.5-4.6-4.2-5.8-4.2c-1.6,0-1.2-0.4-11.9,9.6c-3.4,3.1-6.4,5.6-6.7,5.6s-3.1-2.4-6.4-5.4c-3.2-3-6.9-6.4-8.2-7.6C154.1,75.2,153.4,75.3,147.8,80.8z M163.8,94.2c6.3,5.9,7.8,6.8,9.6,6.1c0.6-0.2,4.7-3.7,9.1-7.9l8.1-7.4l1.2,1.2l1.2,1.2l-1,0.8c-3.8,3-15.1,13.9-15.2,14.7c-0.2,0.6-0.1,1.6,0,2.2c0.1,0.6,3.6,4.1,8,8.1c4.3,3.9,7.8,7.2,7.9,7.4c0,0.1-0.4,0.7-0.9,1.2l-1.1,1l-8.1-7.5c-4.5-4.2-8.7-7.7-9.4-7.9c-1.8-0.5-3,0.4-11.4,8.2l-7.6,7.2l-1.2-1.2l-1.2-1.2l1.4-1.2c7.1-6.2,14.6-13.4,14.8-14.3c0.2-0.6,0.2-1.5,0-2.1c-0.2-0.9-8.9-9.2-14.8-14.3l-1.4-1.2l1.1-1.2l1.2-1.2l1.8,1.8C157,87.8,160.5,91.1,163.8,94.2z"/><path fill="#000000" d="M122.9,143.5c-8,2.2-15.1,9.8-16.6,17.8c-0.6,3.2-0.6,33.8,0,37.1c1.6,8.7,9.6,16.4,18.6,18c10.4,1.8,21.6-5.9,24.4-16.6c0.6-2.6,0.8-5.5,0.8-19.5c0-9.4-0.1-17.5-0.4-18.9c-1.6-8.1-8.6-15.6-16.8-17.8C130,142.7,125.7,142.7,122.9,143.5z M134.6,151.5c4.3,2.1,7.4,6.5,8,11.3l0.3,2.2H128h-14.8V164c0-1.9,1.3-5.6,2.8-7.8c1.5-2.3,4.3-4.3,7.2-5.3C126,149.9,132,150.3,134.6,151.5z M142.7,185.5c-0.1,12.5-0.2,13.2-1.2,15.4c-1.3,3-4.3,5.8-7.3,7.2c-3.3,1.5-9.2,1.5-12.5,0c-3-1.4-5.9-4.3-7.3-7.2c-1-2.3-1.1-2.9-1.2-15.4l-0.1-13H128h14.8L142.7,185.5z"/></g></g></g>
</svg>